name D:\school\WTK\thesis\model\3dpredictsim\Results\MidTarsalJoint\Fal_s1_bCst_PF_Gefen2002_ls150_MT_nl_Gefen2002_MTP_T1_spx10_PIM_w1e+06_ig23.mot
datacolumns 128
datarows 4
range 1.74068104 1.77549467
endheader
time	pelvis_tilt	pelvis_list	pelvis_rotation	pelvis_tx	pelvis_ty	pelvis_tz	hip_flexion_l	hip_adduction_l	hip_rotation_l	hip_flexion_r	hip_adduction_r	hip_rotation_r	knee_angle_l	knee_angle_r	ankle_angle_l	ankle_angle_r	subtalar_angle_l	subtalar_angle_r	mtj_angle_l	mtj_angle_r	mtp_angle_l	mtp_angle_r	lumbar_extension	lumbar_bending	lumbar_rotation	arm_flex_l	arm_add_l	arm_rot_l	arm_flex_r	arm_add_r	arm_rot_r	elbow_flex_l	elbow_flex_r	pro_sup_l	pro_sup_r	glut_med1_l/activation	glut_med2_l/activation	glut_med3_l/activation	glut_min1_l/activation	glut_min2_l/activation	glut_min3_l/activation	semimem_l/activation	semiten_l/activation	bifemlh_l/activation	bifemsh_l/activation	sar_l/activation	add_long_l/activation	add_brev_l/activation	add_mag1_l/activation	add_mag2_l/activation	add_mag3_l/activation	tfl_l/activation	pect_l/activation	grac_l/activation	glut_max1_l/activation	glut_max2_l/activation	glut_max3_l/activation	iliacus_l/activation	psoas_l/activation	quad_fem_l/activation	gem_l/activation	peri_l/activation	rect_fem_l/activation	vas_med_l/activation	vas_int_l/activation	vas_lat_l/activation	med_gas_l/activation	lat_gas_l/activation	soleus_l/activation	tib_post_l/activation	flex_dig_l/activation	flex_hal_l/activation	tib_ant_l/activation	per_brev_l/activation	per_long_l/activation	per_tert_l/activation	ext_dig_l/activation	ext_hal_l/activation	ercspn_l/activation	intobl_l/activation	extobl_l/activation	glut_med1_r/activation	glut_med2_r/activation	glut_med3_r/activation	glut_min1_r/activation	glut_min2_r/activation	glut_min3_r/activation	semimem_r/activation	semiten_r/activation	bifemlh_r/activation	bifemsh_r/activation	sar_r/activation	add_long_r/activation	add_brev_r/activation	add_mag1_r/activation	add_mag2_r/activation	add_mag3_r/activation	tfl_r/activation	pect_r/activation	grac_r/activation	glut_max1_r/activation	glut_max2_r/activation	glut_max3_r/activation	iliacus_r/activation	psoas_r/activation	quad_fem_r/activation	gem_r/activation	peri_r/activation	rect_fem_r/activation	vas_med_r/activation	vas_int_r/activation	vas_lat_r/activation	med_gas_r/activation	lat_gas_r/activation	soleus_r/activation	tib_post_r/activation	flex_dig_r/activation	flex_hal_r/activation	tib_ant_r/activation	per_brev_r/activation	per_long_r/activation	per_tert_r/activation	ext_dig_r/activation	ext_hal_r/activation	ercspn_r/activation	intobl_r/activation	extobl_r/activation	
          1.74068104	         -2.92693549	          2.23501383	         -5.55935378	          2.17585131	          0.92264854	          0.00431264	         31.58559595	          3.37035920	         -2.34445818	        -11.75135482	         -0.41297537	          7.83874155	        -15.21446197	        -18.31639103	          6.85286190	         -9.09169336	         -3.32861998	         10.74140770	          1.46519090	         22.53033507	         -0.43519395	          8.35243621	         -1.70335529	         -0.87489191	          1.51048353	         -5.72584893	        -13.47416728	          6.47044717	          3.92189134	        -13.45546024	         14.83078037	         15.46441807	         38.02202045	         86.51662706	         86.51662706	          0.05967043	          0.05967046	          0.05000014	          0.05967056	          0.05967052	          0.05967029	          0.16515066	          0.10679944	          0.17393533	          0.10142027	          0.05000019	          0.20029370	          0.32883385	          0.11827779	          0.20661073	          0.10040708	          0.05000026	          0.05135696	          0.14906304	          0.05000074	          0.05000053	          0.16388887	          0.08498406	          0.05062645	          0.46417927	          0.32885118	          0.13152612	          0.05000050	          0.05967084	          0.05967077	          0.05967059	          0.06609633	          0.06125798	          0.05772474	          0.05000003	          0.07121054	          0.05000033	          0.45116661	          0.06482137	          0.19536467	          0.20397766	          0.46304827	          0.22409504	          0.05000002	          0.11248536	          0.09577259	          0.17018734	          0.05967122	          0.05000010	          0.26100824	          0.18023479	          0.08052246	          0.05000223	          0.05000025	          0.05000017	          0.05000639	          0.06810360	          0.07187004	          0.07121215	          0.05000183	          0.05000261	          0.05000064	          0.27484527	          0.08498422	          0.05000172	          0.05000122	          0.05000064	          0.05000049	          0.31810311	          0.49221309	          0.05000015	          0.05000062	          0.05000102	          0.39237405	          0.15052190	          0.15174871	          0.14338327	          0.37592727	          0.45386199	          0.26483607	          0.33891199	          0.22796558	          0.28136239	          0.05000001	          0.05001426	          0.06611259	          0.05000013	          0.05000002	          0.05000013	          0.05000002	          0.05135871	          0.10142076	
          1.75228559	         -2.93005107	          2.28261175	         -5.74128544	          2.19363594	          0.92175940	          0.00387770	         31.17509601	          3.74120502	         -2.28786650	        -12.42833269	         -0.77881783	          7.76585293	        -16.11970870	        -18.76480111	          6.21679666	         -9.50007264	         -3.59128816	         11.84197057	          1.23751836	         20.65077337	         -0.49624137	         10.77881379	         -1.48288138	         -1.02718230	          1.61709748	         -6.66455071	        -13.46934724	          6.40853195	          3.69496541	        -13.46882224	         15.24679195	         15.05874367	         38.97913300	         86.51662706	         86.51662706	          0.05000001	          0.05000005	          0.10248792	          0.05000011	          0.05000009	          0.05000007	          0.13838566	          0.08949111	          0.14574664	          0.08498386	          0.08498488	          0.16783347	          0.27554227	          0.30141829	          0.17328928	          0.08413505	          0.05000067	          0.07122028	          0.12490606	          0.05000098	          0.09114900	          0.14928279	          0.07121153	          0.07121689	          0.67681395	          0.27555621	          0.11021051	          0.05967098	          0.05000060	          0.05000056	          0.05000036	          0.07121125	          0.07121136	          0.07121124	          0.06538096	          0.05967048	          0.05967519	          0.37804872	          0.05431615	          0.22456684	          0.17092021	          0.38800479	          0.18777736	          0.05000000	          0.09425551	          0.08025128	          0.14260610	          0.05000081	          0.05287589	          0.21870821	          0.15102527	          0.06747283	          0.05000750	          0.05107718	          0.05182009	          0.05000018	          0.05706666	          0.11533984	          0.05967184	          0.05967115	          0.05967104	          0.05967080	          0.23030285	          0.07121228	          0.05967085	          0.05001772	          0.05963003	          0.05967054	          0.26655004	          0.45324566	          0.05967058	          0.05967061	          0.05967021	          0.32878429	          0.17592141	          0.17432402	          0.16665450	          0.31500290	          0.38030720	          0.22191560	          0.28398649	          0.19102060	          0.23576368	          0.05000063	          0.05000020	          0.08116541	          0.05000039	          0.05953754	          0.05000089	          0.05022021	          0.07001436	          0.08498412	
          1.76389013	         -2.92937100	          2.34619613	         -5.88679932	          2.21164302	          0.92079137	          0.00346985	         30.70664079	          4.00036679	         -2.17523057	        -13.04015072	         -1.14158828	          7.68372750	        -17.15415370	        -19.32184996	          5.37026636	         -9.78296045	         -3.86135941	         12.86635290	          0.77101118	         18.32363891	         -0.48775593	         13.52881921	         -1.25355794	         -1.20852150	          1.71373922	         -7.59487592	        -13.48075478	          6.44371931	          3.40974561	        -13.47830957	         15.61503466	         14.65203948	         39.89809276	         86.51662706	         86.51662706	          0.29096514	          0.33543539	          0.40383301	          0.46437684	          0.40571290	          0.37045649	          0.11595831	          0.07498807	          0.12212635	          0.07121118	          0.07121195	          0.14063373	          0.23088682	          0.25256925	          0.14520583	          0.14987536	          0.05000035	          0.05967916	          0.10466351	          0.14821527	          0.15585343	          0.18248700	          0.05967075	          0.05967521	          0.56712660	          0.23089851	          0.21423956	          0.05000049	          0.05000053	          0.05000077	          0.05000109	          0.05967045	          0.05967055	          0.05967045	          0.05478506	          0.05000031	          0.05000404	          0.55103377	          0.30143253	          0.19341045	          0.53255326	          0.56098039	          0.43407590	          0.07457052	          0.11891256	          0.06724542	          0.28217342	          0.05549898	          0.05000008	          0.37453784	          0.17225746	          0.07121404	          0.05000132	          0.05000015	          0.05000012	          0.05967032	          0.08499020	          0.09664741	          0.05000124	          0.05000068	          0.05000079	          0.05000043	          0.20494584	          0.05967171	          0.05000074	          0.05000128	          0.05000050	          0.05000031	          0.23479543	          0.51947664	          0.05000017	          0.05000043	          0.05000013	          0.27550011	          0.14741091	          0.14607240	          0.13964582	          0.26395219	          0.31867301	          0.18595101	          0.23796245	          0.16006308	          0.19755488	          0.06560847	          0.14009224	          0.10076384	          0.05000246	          0.12334953	          0.05967035	          0.07134859	          0.05866754	          0.07121124	
          1.77549467	         -2.92773751	          2.41142298	         -5.98854454	          2.22957567	          0.91995944	          0.00303011	         30.33352407	          4.22678785	         -2.08221166	        -13.51817257	         -1.48283605	          7.61379548	        -18.24006477	        -20.05380977	          4.05833203	         -9.96546754	         -4.10310754	         13.82642459	          0.56317046	         15.47636527	         -0.48626736	         16.63767937	         -1.04254275	         -1.40205092	          1.80058504	         -8.45022235	        -13.49164799	          6.55937433	          3.12196916	        -13.48473943	         15.96122931	         14.20819364	         40.71964234	         86.51662706	         86.51662706	          0.38157726	          0.45137434	          0.42415171	          0.38911821	          0.34207936	          0.31041936	          0.09716562	          0.06283629	          0.10233405	          0.05967050	          0.05967110	          0.11784206	          0.19346835	          0.21163699	          0.15649446	          0.17215351	          0.05000165	          0.05000767	          0.08770151	          0.25631847	          0.22355767	          0.21225963	          0.05000028	          0.05000401	          0.47521567	          0.19347820	          0.17951914	          0.05000006	          0.22610127	          0.21402779	          0.19925499	          0.05000002	          0.05000011	          0.05000000	          0.05000007	          0.05000042	          0.05000025	          0.65860454	          0.26897721	          0.20862189	          0.68431044	          0.58609410	          0.36372853	          0.08801623	          0.09964109	          0.05634736	          0.23644322	          0.05606562	          0.06013367	          0.31383870	          0.14434077	          0.05967369	          0.05000225	          0.05000023	          0.05000027	          0.05000013	          0.07121645	          0.18402317	          0.05000045	          0.05000085	          0.05000772	          0.08459239	          0.17173154	          0.05000179	          0.05000055	          0.05001608	          0.05009335	          0.08454692	          0.19674351	          0.50975989	          0.05000063	          0.05013675	          0.06458269	          0.23085140	          0.14444599	          0.14444597	          0.14444599	          0.22117497	          0.26702752	          0.15581499	          0.19939727	          0.13412268	          0.16553837	          0.10268595	          0.11745674	          0.08851592	          0.15933033	          0.14419017	          0.05000098	          0.10059851	          0.05000002	          0.05967045	
